# xmcd CD database file generated by Grip 2.94
# 
# Track frame offsets:
#       150
#       14150
#       25795
#       37387
#       48807
#       62645
#       74892
#       88982
#       101225
#       116045
#       130030
#       141297
#       154362
#       169452
#       184345
#       199032
#       214530
#       229592
#       241912
#       255955
#       269787
# 
# Disc length: 3782 seconds
# 
# Revision: 3
# Processed by: cddbd v1.4PL0 Copyright (c) Steve Scherf et al.
# Submitted via: Grip 2.94
# 
DISCID=470ec415
DTITLE=Robert Lee McCoy - The Bluebird Recordings
DYEAR=1900
DGENRE=
TTITLE0=Tough Luck
TTITLE1=Lonesome World
TTITLE2=G Man
TTITLE3=Don't Mistreat Your Woman
TTITLE4=Prowling Night Hawk
TTITLE5=Sweet Pepper Mama
TTITLE6=My Friend Has Forsaken Me
TTITLE7=Mean Black Cat
TTITLE8=Brickyard
TTITLE9=Mamie Lee
TTITLE10=Take It Easy Baby
TTITLE11=I Have Spent My Bones
TTITLE12=C N A
TTITLE13=Every Day and Night
TTITLE14=Ol' Mose
TTITLE15=You're All I've Got To Live For
TTITLE16=She's Got What It Takes
TTITLE17=Next Door Neighbor
TTITLE18=Big Apple Blues
TTITLE19=Freight Train Blues
TTITLE20=Good Gamblin'
EXTD=
EXTT0=
EXTT1=
EXTT2=
EXTT3=
EXTT4=
EXTT5=
EXTT6=
EXTT7=
EXTT8=
EXTT9=
EXTT10=
EXTT11=
EXTT12=
EXTT13=
EXTT14=
EXTT15=
EXTT16=
EXTT17=
EXTT18=
EXTT19=
EXTT20=
PLAYORDER=
